<?xml version="1.0" encoding="UTF-8" standalone="no"?>
<!-- Created with Inkscape (http://www.inkscape.org/) -->

<svg
     xmlns:dc="http://purl.org/dc/elements/1.1/"
     xmlns:cc="http://creativecommons.org/ns#"
     xmlns:rdf="http://www.w3.org/1999/02/22-rdf-syntax-ns#"
     xmlns:svg="http://www.w3.org/2000/svg"
     xmlns="http://www.w3.org/2000/svg"
     xmlns:xlink="http://www.w3.org/1999/xlink"
     xmlns:sodipodi="http://sodipodi.sourceforge.net/DTD/sodipodi-0.dtd"
     xmlns:inkscape="http://www.inkscape.org/namespaces/inkscape"
     width="256"
     height="256"
     id="svg2"
     version="1.1"
     inkscape:version="0.48.5 r10040"
     sodipodi:docname="shape.svg">
    <title
         id="title3839">Le Soul Drugon</title>
    <defs
         id="defs4" />
    <sodipodi:namedview
         id="base"
         pagecolor="#ffffff"
         bordercolor="#666666"
         borderopacity="1.0"
         inkscape:pageopacity="0.0"
         inkscape:pageshadow="2"
         inkscape:zoom="1"
         inkscape:cx="94.585478"
         inkscape:cy="133.38371"
         inkscape:document-units="px"
         inkscape:current-layer="layer3"
         showgrid="false"
         showguides="true"
         inkscape:guide-bbox="true" />
    <metadata
         id="metadata7">
        <rdf:RDF>
            <cc:Work
                 rdf:about="">
                <dc:format>image/svg+xml</dc:format>
                <dc:type
                     rdf:resource="http://purl.org/dc/dcmitype/StillImage" />
                <dc:title>Le Soul Drugon</dc:title>
                <dc:creator>
                    <cc:Agent>
                        <dc:title>Harenome Ranaivoarivony Razanajato</dc:title>
                    </cc:Agent>
                </dc:creator>
                <dc:rights>
                    <cc:Agent>
                        <dc:title>Harenome Ranaivoarivony Razanajato</dc:title>
                    </cc:Agent>
                </dc:rights>
                <cc:license
                     rdf:resource="http://creativecommons.org/licenses/by-nc-nd/4.0/" />
            </cc:Work>
            <cc:License
                 rdf:about="http://creativecommons.org/licenses/by-nc-nd/3.0/">
                <cc:permits
                     rdf:resource="http://creativecommons.org/ns#Reproduction" />
                <cc:permits
                     rdf:resource="http://creativecommons.org/ns#Distribution" />
                <cc:requires
                     rdf:resource="http://creativecommons.org/ns#Notice" />
                <cc:requires
                     rdf:resource="http://creativecommons.org/ns#Attribution" />
                <cc:prohibits
                     rdf:resource="http://creativecommons.org/ns#CommercialUse" />
            </cc:License>
        </rdf:RDF>
    </metadata>
    <g
         inkscape:groupmode="layer"
         id="layer3"
         inkscape:label="Calque#1"
         style="display:none">
        <rect
             style="fill:#ffffff;fill-opacity:1;fill-rule:evenodd;stroke:none"
             id="rect3802"
             width="276"
             height="276"
             x="-10"
             y="-10"
             rx="16.107382"
             ry="16.107382" />
    </g>
    <g
         inkscape:groupmode="layer"
         id="layer6"
         inkscape:label="horns"
         style="display:inline">
        <path
             style="fill:#f5f5f5;fill-opacity:1;stroke:none;display:inline;stroke-opacity:1;stroke-width:2;stroke-miterlimit:4;stroke-dasharray:none"
             d="M 97,20 C 86.997218,37.325328 78.806671,52.027044 80,70 c 2.394447,17.83318 11.346649,25.003985 20,30 L 118,85 C 108.60922,81.605341 98.504407,68.33776 96,64 92.998847,58.801851 90.532346,44.137612 97,20 z"
             id="path2999"
             inkscape:connector-curvature="0"
             sodipodi:nodetypes="cccccc" />
        <use
             style="display:inline"
             x="0"
             y="0"
             xlink:href="#path2999"
             id="use3829"
             transform="matrix(-1,0,0,1,256,0)"
             width="256"
             height="256" />
    </g>
    <g
         inkscape:groupmode="layer"
         id="layer10"
         inkscape:label="mouth">
        <path
             style="fill:#339556;fill-opacity:1;stroke:none;display:inline"
             d="m 70,205 c 0,4.02121 1.52859,8.99578 5,11 1.722548,0.99451 27.97928,12 53,12 l 0,-23 z"
             id="path3791"
             inkscape:connector-curvature="0"
             sodipodi:nodetypes="ccccc" />
        <use
             style="display:inline"
             x="0"
             y="0"
             xlink:href="#path3791"
             id="use3837"
             transform="matrix(-1,0,0,1,256,0)"
             width="256"
             height="256" />
    </g>
    <g
         inkscape:groupmode="layer"
         id="layer9"
         inkscape:label="teeth">
        <path
             style="fill:#f5f5f5;fill-opacity:1;stroke:none;display:inline"
             d="m 88,210 c 0.505724,5.98636 -0.01126,16.5164 2,20 0.761581,1.3191 6.973518,6 8,6 1.036005,0 9.40563,-2.97053 10,-4 3.09932,-3.94498 8,-11.96781 8,-17 z"
             id="path3007"
             inkscape:connector-curvature="0"
             sodipodi:nodetypes="cccccc" />
        <use
             style="display:inline"
             x="0"
             y="0"
             xlink:href="#path3007"
             id="use3808"
             transform="matrix(-1,0,0,1,256,0)"
             width="256"
             height="256" />
    </g>
    <g
         inkscape:groupmode="layer"
         id="layer2"
         inkscape:label="head"
         style="display:inline">
        <use
             x="0"
             y="0"
             xlink:href="#path2997"
             id="use3835"
             transform="matrix(-1,0,0,1,256,0)"
             width="256"
             height="256" />
        <path
             style="fill:#22c15c;fill-opacity:1;stroke:none"
             d="m 128,80 0,140 c -19.99501,0 -51.926418,-6.49342 -58,-10 -2.588951,-1.49473 -10,-4.99636 -10,-15 0,-9.00252 12.439713,-19.63448 25,-23 7.728815,-2.07093 12.40227,-67.0054 13,-82 0.18448,-1.983601 2.24686,-3.987822 4,-5 0.3218,-0.321802 10.98784,-5 26,-5 z"
             id="path2997"
             inkscape:connector-curvature="0"
             sodipodi:nodetypes="cccccccc" />
    </g>
    <g
         inkscape:groupmode="layer"
         id="layer7"
         inkscape:label="nose"
         style="display:inline">
        <path
             style="fill:#339556;fill-opacity:1;stroke:none;display:inline"
             d="m 72,192 c -2.492317,-4.31682 -3.258349,-13.09517 -2,-18 0.781753,-2.91754 6.362415,-9.41762 16,-12 2.914156,-0.78086 17.68773,-0.75543 22,6 3.48589,4.88549 4,11.98122 4,20 -5.66664,5.66664 -36.530279,6.00324 -40,4 z"
             id="path3011"
             inkscape:connector-curvature="0"
             sodipodi:nodetypes="cccccc" />
        <use
             style="display:inline"
             x="0"
             y="0"
             xlink:href="#path3011"
             id="use3804"
             transform="matrix(-1,0,0,1,256,0)"
             width="256"
             height="256" />
    </g>
    <g
         inkscape:groupmode="layer"
         id="layer8"
         inkscape:label="nose holes"
         style="display:inline">
        <path
             style="fill:#395834;fill-opacity:1;stroke:none;display:inline"
             d="m 76,192.5 c -1.996714,-3.45841 -3.165698,-11.62564 -2,-16.5 0.775461,-2.89406 6.309134,-7.93924 14,-10 4.813583,-1.2898 14.97422,0.7592 18,6 2.81834,4.88151 3.48914,11.94247 2,17.5 -1.5102,2.61575 -11.025781,4.32951 -16,4.5 -9.00102,0 -14.572307,-0.0723 -16,-1.5 z"
             id="path3003"
             inkscape:connector-curvature="0"
             sodipodi:nodetypes="ccccccc" />
        <use
             style="display:inline"
             x="0"
             y="0"
             xlink:href="#path3003"
             id="use3806"
             transform="matrix(-1,0,0,1,256,0)"
             width="256"
             height="256" />
    </g>
    <g
         inkscape:groupmode="layer"
         id="layer5"
         inkscape:label="eye lids"
         style="display:inline">
        <path
             transform="matrix(0.89532946,0,0,1.1211784,-1.8705065,-7.6703047)"
             d="m 136.11806,94.249321 a 24.57196,19.622213 0 1 1 -49.143924,0 24.57196,19.622213 0 1 1 49.143924,0 z"
             sodipodi:ry="19.622213"
             sodipodi:rx="24.57196"
             sodipodi:cy="94.249321"
             sodipodi:cx="111.5461"
             id="path3789"
             style="fill:#339556;fill-opacity:1;fill-rule:evenodd;stroke:none;display:inline"
             sodipodi:type="arc" />
        <use
             style="display:inline"
             x="0"
             y="0"
             xlink:href="#path3789"
             id="use3831"
             transform="matrix(-1,0,0,1,256,0)"
             width="256"
             height="256" />
    </g>
    <g
         inkscape:groupmode="layer"
         id="layer4"
         inkscape:label="eye balls"
         style="display:inline">
        <path
             sodipodi:type="arc"
             style="fill:#f5f5f5;fill-opacity:1;fill-rule:evenodd;stroke:none;display:inline"
             id="path3015"
             sodipodi:cx="111.5461"
             sodipodi:cy="94.249321"
             sodipodi:rx="24.57196"
             sodipodi:ry="19.622213"
             d="m 136.11806,94.249321 a 24.57196,19.622213 0 1 1 -49.143924,0 24.57196,19.622213 0 1 1 49.143924,0 z"
             transform="matrix(0.81393587,0,0,1.0192531,7.2086307,2.9360856)" />
        <use
             style="display:inline"
             x="0"
             y="0"
             xlink:href="#path3015"
             id="use3833"
             transform="matrix(-1,0,0,1,256,0)"
             width="256"
             height="256" />
    </g>
    <g
         inkscape:groupmode="layer"
         id="layer11"
         inkscape:label="eye">
        <path
             style="fill:#395834;fill-opacity:1;fill-rule:evenodd;stroke:none"
             d="M 92.09375 96.03125 C 87.555445 96.49214 84 100.3401 84 105 C 84 109.97056 88.029437 114 93 114 C 97.970563 114 102 109.97056 102 105 C 102 104.76424 101.98655 104.5437 101.96875 104.3125 C 101.06509 104.73792 100.06496 105 99 105 C 95.134007 105 92 101.86599 92 98 C 92 97.319274 92.100028 96.653473 92.28125 96.03125 C 92.218355 96.036313 92.156273 96.0249 92.09375 96.03125 z "
             id="path3787" />
        <use
             x="0"
             y="0"
             xlink:href="#path3787"
             id="use3791"
             transform="matrix(-1,0,0,1,256,0)"
             width="256"
             height="256" />
    </g>
    <g
         inkscape:groupmode="layer"
         id="layer1"
         inkscape:label="left eye lid"
         style="display:inline">
        <path
             transform="matrix(-0.89532946,0,0,1.1211784,257.87051,-7.6703047)"
             style="fill:#339556;fill-opacity:1;fill-rule:evenodd;stroke:none;display:inline"
             d="m 136.11806,94.249321 c 0,10.837049 -49.143924,10.837049 -49.143924,0 0,-10.837049 11.001242,-19.622213 24.571964,-19.622213 13.57072,0 24.57196,8.785164 24.57196,19.622213 z"
             id="use3777"
             inkscape:connector-curvature="0"
             sodipodi:nodetypes="ssss" />
    </g>
</svg>
